<svg width="116" height="40" viewBox="0 0 116 40" fill="none" xmlns="http://www.w3.org/2000/svg">
<g filter="url(#filter0_dd_6_25)">
<rect x="2" y="2" width="112" height="36" rx="9" fill="#9945FF"/>
</g>
<g style="mix-blend-mode:plus-darker">
<path d="M14.144 30.1103L20.648 13.0223H25.544L31.976 30.1103H26.984L22.208 15.5903H23.936L19.04 30.1103H14.144ZM18.368 27.2303V23.4863H27.92V27.2303H18.368ZM34.5457 30.1103V13.0223L39.3457 13.0223V30.1103H34.5457ZM38.4577 30.1103V26.0303L46.4497 26.0303V30.1103L38.4577 30.1103ZM53.3681 24.1103V20.6543H56.4641C56.8321 20.6543 57.1681 20.5823 57.4721 20.4383C57.7921 20.2783 58.0481 20.0463 58.2401 19.7423C58.4321 19.4223 58.5281 19.0303 58.5281 18.5663C58.5281 18.1023 58.4321 17.7183 58.2401 17.4143C58.0481 17.0943 57.7921 16.8623 57.4721 16.7183C57.1681 16.5583 56.8321 16.4783 56.4641 16.4783H53.3681V13.0223L57.4001 13.0223C58.5041 13.0223 59.4961 13.2463 60.3761 13.6943C61.2721 14.1263 61.9761 14.7583 62.4881 15.5903C63.0161 16.4063 63.2801 17.3983 63.2801 18.5663C63.2801 19.7183 63.0161 20.7103 62.4881 21.5423C61.9761 22.3743 61.2721 23.0143 60.3761 23.4623C59.4961 23.8943 58.5041 24.1103 57.4001 24.1103H53.3681ZM49.4801 30.1103V13.0223L54.2801 13.0223V30.1103H49.4801ZM66.1957 30.1103V13.0223H70.9957V30.1103H66.1957ZM76.5157 30.1103V13.0223H81.3157V30.1103H76.5157ZM68.8117 23.3903V19.4063H78.3877V23.3903H68.8117ZM84.0768 30.1103L90.5808 13.0223H95.4768L101.909 30.1103H96.9168L92.1408 15.5903H93.8688L88.9728 30.1103H84.0768ZM88.3008 27.2303V23.4863H97.8528V27.2303H88.3008Z" fill="#1BF5A0" fill-opacity="0.15"/>
</g>
<path d="M13.144 29L19.648 11.912H24.544L30.976 29H25.984L21.208 14.48H22.936L18.04 29H13.144ZM17.368 26.12V22.376H26.92V26.12H17.368ZM33.5457 29V11.912L38.3457 11.912V29H33.5457ZM37.4577 29V24.92L45.4497 24.92V29L37.4577 29ZM52.3681 23V19.544H55.4641C55.8321 19.544 56.1681 19.472 56.4721 19.328C56.7921 19.168 57.0481 18.936 57.2401 18.632C57.4321 18.312 57.5281 17.92 57.5281 17.456C57.5281 16.992 57.4321 16.608 57.2401 16.304C57.0481 15.984 56.7921 15.752 56.4721 15.608C56.1681 15.448 55.8321 15.368 55.4641 15.368H52.3681V11.912L56.4001 11.912C57.5041 11.912 58.4961 12.136 59.3761 12.584C60.2721 13.016 60.9761 13.648 61.4881 14.48C62.0161 15.296 62.2801 16.288 62.2801 17.456C62.2801 18.608 62.0161 19.6 61.4881 20.432C60.9761 21.264 60.2721 21.904 59.3761 22.352C58.4961 22.784 57.5041 23 56.4001 23H52.3681ZM48.4801 29V11.912L53.2801 11.912V29H48.4801ZM65.1957 29V11.912H69.9957V29H65.1957ZM75.5157 29V11.912H80.3157V29H75.5157ZM67.8117 22.28V18.296H77.3877V22.28H67.8117ZM83.0768 29L89.5808 11.912H94.4768L100.909 29H95.9168L91.1408 14.48H92.8688L87.9728 29H83.0768ZM87.3008 26.12V22.376H96.8528V26.12H87.3008Z" fill="#1BF5A0"/>
<defs>
<filter id="filter0_dd_6_25" x="0" y="0" width="116" height="40" filterUnits="userSpaceOnUse" color-interpolation-filters="sRGB">
<feFlood flood-opacity="0" result="BackgroundImageFix"/>
<feColorMatrix in="SourceAlpha" type="matrix" values="0 0 0 0 0 0 0 0 0 0 0 0 0 0 0 0 0 0 127 0" result="hardAlpha"/>
<feMorphology radius="1" operator="dilate" in="SourceAlpha" result="effect1_dropShadow_6_25"/>
<feOffset/>
<feGaussianBlur stdDeviation="0.5"/>
<feColorMatrix type="matrix" values="0 0 0 0 0.0352941 0 0 0 0 0.117647 0 0 0 0 0.258824 0 0 0 0.13 0"/>
<feBlend mode="normal" in2="BackgroundImageFix" result="effect1_dropShadow_6_25"/>
<feColorMatrix in="SourceAlpha" type="matrix" values="0 0 0 0 0 0 0 0 0 0 0 0 0 0 0 0 0 0 127 0" result="hardAlpha"/>
<feOffset dy="1"/>
<feGaussianBlur stdDeviation="0.5"/>
<feColorMatrix type="matrix" values="0 0 0 0 0.0352941 0 0 0 0 0.117647 0 0 0 0 0.258824 0 0 0 0.25 0"/>
<feBlend mode="normal" in2="effect1_dropShadow_6_25" result="effect2_dropShadow_6_25"/>
<feBlend mode="normal" in="SourceGraphic" in2="effect2_dropShadow_6_25" result="shape"/>
</filter>
</defs>
</svg>
